<?xml version="1.0" standalone="no"?>
<!DOCTYPE svg PUBLIC "-//W3C//DTD SVG 20010904//EN"
 "http://www.w3.org/TR/2001/REC-SVG-20010904/DTD/svg10.dtd">
<svg version="1.0" xmlns="http://www.w3.org/2000/svg"
 width="296.000000pt" height="136.000000pt" viewBox="0 0 296.000000 136.000000"
 preserveAspectRatio="xMidYMid meet">

<g transform="translate(0.000000,136.000000) scale(0.100000,-0.100000)"
fill="#000000" stroke="none">
<path d="M1464 1192 c-53 -43 -59 -114 -15 -164 l29 -33 29 21 c31 23 55 63
46 77 -3 5 -12 -4 -19 -21 -7 -17 -22 -36 -34 -42 -51 -27 -91 71 -50 123 38
48 57 52 90 18 23 -23 30 -38 30 -69 0 -51 -40 -94 -125 -133 -33 -16 -53 -28
-45 -28 22 -1 99 36 137 65 59 45 62 140 6 184 -31 24 -51 25 -79 2z"/>
<path d="M1670 1051 c-35 -36 -38 -38 -63 -25 -16 9 -28 10 -32 4 -3 -5 10
-17 29 -26 25 -12 35 -25 38 -45 5 -35 0 -35 -53 -8 -44 22 -67 17 -34 -7 33
-24 125 -47 167 -41 67 9 115 71 103 133 -7 39 -29 54 -81 54 -30 0 -44 -7
-74 -39z m134 -14 c13 -35 -14 -89 -50 -106 -36 -16 -44 -13 -11 5 15 8 25 20
21 25 -4 7 -10 7 -17 0 -17 -17 -84 -14 -91 5 -8 20 18 79 41 93 10 6 36 10
58 8 33 -2 41 -6 49 -30z"/>
<path d="M1384 1024 c-18 -15 -18 -15 6 -10 14 3 29 6 33 6 5 0 5 5 2 10 -9
14 -18 13 -41 -6z"/>
<path d="M1427 854 c-14 -15 -7 -122 9 -138 20 -21 88 -21 108 0 20 20 23 148
4 142 -8 -3 -15 -30 -18 -69 l-5 -64 -35 0 -35 0 -3 60 c-3 59 -12 82 -25 69z"/>
<path d="M1223 636 c-41 -19 -68 -60 -68 -106 0 -53 18 -70 74 -70 49 0 80 18
101 58 8 16 15 20 23 14 21 -16 46 -21 52 -11 4 5 -9 16 -28 24 -27 11 -36 21
-39 45 -4 27 -2 30 16 24 12 -4 33 -13 48 -20 32 -16 38 -17 38 -5 0 13 -89
48 -140 55 -29 4 -56 1 -77 -8z m4 -27 c-24 -14 -12 -32 13 -19 29 15 77 12
84 -6 11 -29 -21 -84 -58 -99 -55 -23 -96 0 -96 55 0 22 47 80 63 80 7 0 4 -5
-6 -11z"/>
<path d="M1539 596 c-115 -41 -167 -114 -135 -190 30 -73 99 -84 137 -23 41
65 -1 179 -58 156 -21 -7 -63 -63 -63 -81 0 -19 18 -6 24 17 4 14 18 32 32 42
26 16 27 16 45 -6 40 -49 32 -113 -17 -146 -43 -28 -94 19 -94 86 0 32 7 43
46 78 26 23 64 46 85 53 22 6 39 15 39 20 0 10 3 10 -41 -6z"/>
<path d="M1566 531 c-14 -5 -16 -10 -8 -15 15 -9 52 2 52 15 0 11 -17 11 -44
0z"/>
<path d="M130 131 c0 -41 5 -65 16 -75 20 -21 78 -20 95 0 18 21 19 125 2 131
-10 3 -13 -11 -13 -51 0 -44 -4 -57 -19 -66 -25 -13 -27 -13 -45 6 -10 10 -16
33 -16 65 0 27 -4 49 -10 49 -6 0 -10 -26 -10 -59z"/>
<path d="M310 115 c0 -85 17 -103 22 -23 l3 53 37 -53 c54 -75 68 -70 68 24 0
56 -3 75 -12 72 -7 -3 -15 -24 -18 -49 l-5 -44 -33 48 c-48 69 -62 63 -62 -28z"/>
<path d="M490 115 c0 -57 3 -76 13 -72 17 5 17 139 0 145 -10 3 -13 -16 -13
-73z"/>
<path d="M570 181 c0 -5 9 -11 20 -14 17 -4 20 -14 20 -66 0 -47 3 -61 15 -61
10 0 15 16 17 63 3 56 5 62 26 65 12 2 20 8 17 13 -8 12 -115 12 -115 0z"/>
<path d="M740 183 c0 -3 11 -21 25 -39 16 -21 25 -46 25 -68 0 -25 4 -36 15
-36 11 0 15 11 15 37 0 23 9 48 25 69 29 38 30 44 11 44 -7 0 -22 -12 -31 -27
l-18 -27 -21 27 c-20 25 -46 36 -46 20z"/>
<path d="M927 183 c-4 -3 -7 -37 -7 -75 l0 -69 55 3 c66 4 78 22 18 26 -51 4
-62 32 -13 32 20 0 30 5 30 15 0 10 -10 15 -31 15 -24 0 -30 4 -27 18 2 12 15
18 46 20 23 2 40 7 37 13 -7 10 -98 13 -108 2z"/>
<path d="M1100 182 c0 -5 7 -17 15 -28 19 -26 18 -44 -5 -74 -23 -30 -25 -40
-6 -40 7 0 22 12 31 27 l18 27 21 -27 c12 -15 27 -27 34 -27 17 0 16 4 -13 46
l-25 36 20 28 c23 33 25 40 7 40 -7 0 -18 -9 -25 -21 l-13 -21 -23 21 c-23 22
-36 27 -36 13z"/>
<path d="M1295 176 c-27 -20 -27 -103 0 -123 26 -18 90 -17 106 3 13 15 11 16
-21 12 -56 -9 -80 5 -80 46 0 39 23 59 63 54 12 -2 24 2 27 7 8 16 -73 17 -95
1z"/>
<path d="M1460 116 c0 -61 3 -76 15 -76 10 0 15 10 15 30 0 28 2 30 40 30 38
0 40 -2 40 -30 0 -20 5 -30 15 -30 13 0 15 12 13 72 -2 46 -7 73 -15 76 -9 2
-13 -7 -13 -27 0 -29 -2 -31 -39 -31 -36 0 -40 3 -43 27 -2 14 -9 28 -15 31
-10 3 -13 -16 -13 -72z"/>
<path d="M1674 120 c-26 -67 -26 -104 0 -67 16 21 74 23 82 2 5 -13 34 -22 34
-12 0 22 -60 143 -72 145 -11 2 -24 -17 -44 -68z m59 0 c4 -15 0 -20 -15 -20
-14 0 -18 5 -14 16 3 9 6 20 6 25 0 17 17 1 23 -21z"/>
<path d="M1840 115 c0 -59 3 -75 14 -75 11 0 16 14 18 48 l3 47 33 -47 c48
-70 62 -64 62 27 0 43 -4 75 -10 75 -5 0 -10 -20 -10 -45 0 -25 -4 -45 -8 -45
-5 0 -22 20 -40 45 -48 68 -62 61 -62 -30z"/>
<path d="M2046 177 c-14 -11 -19 -26 -19 -62 0 -57 18 -75 74 -75 42 0 59 16
62 57 2 25 -2 28 -30 31 -25 2 -33 -1 -33 -12 0 -9 9 -16 20 -16 25 0 26 -16
1 -30 -13 -7 -28 -7 -45 0 -21 8 -26 16 -26 44 0 39 23 59 63 54 12 -2 24 2
27 7 8 16 -73 18 -94 2z"/>
<path d="M2220 115 l0 -75 56 0 c67 0 72 23 6 28 -51 4 -58 29 -9 34 17 2 32
8 32 13 0 6 -15 11 -32 13 -60 6 -36 42 28 42 18 0 28 4 24 10 -3 6 -28 10
-56 10 l-49 0 0 -75z"/>
<path d="M2380 115 c0 -43 4 -75 10 -75 6 0 10 14 10 31 0 29 1 30 43 27 38
-3 42 -6 45 -30 7 -58 22 -25 22 47 0 72 -15 105 -22 48 -3 -25 -7 -28 -45
-31 -42 -3 -43 -2 -43 27 0 17 -4 31 -10 31 -6 0 -10 -32 -10 -75z"/>
<path d="M2560 132 c0 -68 17 -92 68 -92 47 0 62 22 62 91 0 46 -3 59 -15 59
-12 0 -15 -13 -15 -59 0 -62 -9 -75 -49 -64 -17 4 -21 14 -23 61 -4 79 -28 83
-28 4z"/>
<path d="M2740 115 l0 -75 44 0 c54 0 80 21 72 59 -4 14 -8 35 -10 47 -5 36
-16 44 -62 44 l-44 0 0 -75z m78 38 c2 -8 -6 -13 -22 -13 -25 0 -33 10 -19 24
10 10 36 3 41 -11z m12 -63 c0 -16 -7 -20 -30 -20 -23 0 -30 4 -30 20 0 16 7
20 30 20 23 0 30 -4 30 -20z"/>
</g>
</svg>
